<svg width="81" height="81" viewBox="0 0 81 81" fill="none" xmlns="http://www.w3.org/2000/svg">
<g opacity="0.84">
<path d="M40.4439 79.8914C45.1111 79.8914 49.6788 79.0845 54.0199 77.493C58.2148 75.9552 62.0961 73.7255 65.5559 70.8658C72.1881 65.384 76.8711 57.8475 78.8348 49.5372H64.2995C62.6729 54.1062 59.7526 58.0404 55.8195 60.9497C51.6052 64.0671 46.5994 65.7148 41.3434 65.7148C34.8341 65.7148 28.7144 63.1801 24.1118 58.5776C19.5092 53.9753 16.9744 47.8561 16.9744 41.3474C16.9744 34.8381 19.5092 28.7184 24.1118 24.1158C28.7144 19.5133 34.834 16.9785 41.3434 16.9785C46.248 16.9785 50.9768 18.4295 55.0182 21.1747C58.7762 23.7273 61.7241 27.2386 63.5762 31.3587L78.8348 31.3587C76.871 23.0484 72.1881 15.512 65.5559 10.0302C62.0961 7.17051 58.2148 4.94076 54.0199 3.40294C49.6788 1.81148 45.1111 1.00455 40.4439 1.00455C35.1187 1.00455 29.9532 2.0473 25.0911 4.10382C20.3944 6.0904 16.176 8.93456 12.5532 12.5573C8.93049 16.1801 6.08632 20.3985 4.09975 25.0952C2.04322 29.9573 1.00047 35.1227 1.00047 40.448C1.00047 45.7732 2.04322 50.9386 4.09975 55.8007C6.08633 60.4975 8.9305 64.7159 12.5532 68.3386C16.176 71.9614 20.3944 74.8056 25.0911 76.7921C29.9532 78.8487 35.1187 79.8914 40.4439 79.8914ZM40.4439 80.8919C34.9841 80.8919 29.6875 79.8225 24.7014 77.7136C19.8854 75.6765 15.5601 72.7604 11.8458 69.0461C8.13151 65.3317 5.21534 61.0065 3.17831 56.1905C1.06934 51.2044 0 45.9078 0 40.448C0 34.9881 1.06934 29.6916 3.17831 24.7055C5.21533 19.8894 8.1315 15.5642 11.8458 11.8499C15.5601 8.13558 19.8854 5.21942 24.7014 3.18239C29.6875 1.07341 34.984 0.0040741 40.4439 0.0040741C45.229 0.0040741 49.9125 0.831576 54.3643 2.46359C58.6659 4.04057 62.6458 6.32688 66.1933 9.25906C73.3191 15.1488 78.2503 23.3526 80.0787 32.3592L62.9194 32.3592C61.1652 28.153 58.2392 24.572 54.4561 22.0023C50.5811 19.3702 46.0468 17.979 41.3434 17.979C35.1012 17.979 29.2328 20.4097 24.8192 24.8233C20.4056 29.2369 17.9749 35.1053 17.9749 41.3474C17.9749 47.5889 20.4056 53.4568 24.8192 57.8702C29.2329 62.2837 35.1013 64.7143 41.3434 64.7143C46.3837 64.7143 51.1837 63.1344 55.2245 60.1454C59.186 57.215 62.0762 53.2008 63.5827 48.5368L80.0787 48.5368C78.25 57.5449 73.3181 65.7479 66.1933 71.6369C62.6458 74.5691 58.666 76.8554 54.3643 78.4324C49.9125 80.0644 45.229 80.8919 40.4439 80.8919Z" fill="#707070"/>
</g>
</svg>
