<svg preserveAspectRatio="xMidYMid meet" width="100%" height="100%" overflow="visible" style="display: block;" viewBox="0 0 23.98 23.98" fill="none" xmlns="http://www.w3.org/2000/svg">
<g id="Group">
<path id="Vector" d="M11.99 1.2C17.94 1.2 22.78 6.04 22.78 11.99C22.78 17.94 17.94 22.78 11.99 22.78C6.04 22.78 1.2 17.94 1.2 11.99C1.2 6.04 6.04 1.2 11.99 1.2ZM11.99 0C5.37 0 0 5.37 0 11.99C0 18.61 5.37 23.98 11.99 23.98C18.61 23.98 23.98 18.61 23.98 11.99C23.98 5.37 18.61 0 11.99 0Z" fill="var(--fill-0, #333333)"/>
<path id="Vector_2" d="M11.99 5.59C13.66 5.59 15.03 6.95 15.03 8.63C15.03 10.31 13.67 11.67 11.99 11.67C10.31 11.67 8.95 10.31 8.95 8.63C8.95 6.95 10.31 5.59 11.99 5.59ZM11.99 4.39C9.65 4.39 7.75 6.29 7.75 8.63C7.75 10.97 9.65 12.87 11.99 12.87C14.33 12.87 16.23 10.97 16.23 8.63C16.23 6.29 14.33 4.39 11.99 4.39Z" fill="var(--fill-0, #333333)"/>
<path id="Vector_3" d="M4.84 20.27C5.43 16.75 8.4 14.07 11.97 14.07C15.54 14.07 18.68 16.91 19.14 20.58" stroke="var(--stroke-0, #333333)" stroke-width="1.2" stroke-linecap="round" stroke-linejoin="round"/>
</g>
</svg>
