<svg preserveAspectRatio="xMidYMid meet" width="100%" height="100%" overflow="visible" style="display: block;" viewBox="0 0 24.7541 23.8531" fill="none" xmlns="http://www.w3.org/2000/svg">
<g id="&#227;&#131;&#172;&#227;&#130;&#164;&#227;&#131;&#164;&#227;&#131;&#188; 1">
<path id="&#227;&#131;&#145;&#227;&#130;&#185; 3479" d="M17.98 6.80014H0.600005L2.46 16.4091H18.06L20.993 1.36514L24.154 0.600138" stroke="var(--stroke-0, #333333)" stroke-width="1.2" stroke-linecap="round" stroke-linejoin="round"/>
<path id="&#230;&#165;&#149;&#229;&#134;&#134;&#229;&#189;&#162; 14" d="M5.81601 23.2531C6.59141 23.2531 7.22001 22.6245 7.22001 21.8491C7.22001 21.0737 6.59141 20.4451 5.81601 20.4451C5.0406 20.4451 4.41201 21.0737 4.41201 21.8491C4.41201 22.6245 5.0406 23.2531 5.81601 23.2531Z" stroke="var(--stroke-0, #333333)" stroke-width="1.2" stroke-linecap="round" stroke-linejoin="round"/>
<path id="&#230;&#165;&#149;&#229;&#134;&#134;&#229;&#189;&#162; 15" d="M15.15 23.2531C15.9254 23.2531 16.554 22.6245 16.554 21.8491C16.554 21.0737 15.9254 20.4451 15.15 20.4451C14.3746 20.4451 13.746 21.0737 13.746 21.8491C13.746 22.6245 14.3746 23.2531 15.15 23.2531Z" stroke="var(--stroke-0, #333333)" stroke-width="1.2" stroke-linecap="round" stroke-linejoin="round"/>
<path id="&#227;&#131;&#145;&#227;&#130;&#185; 3480" d="M2.79101 18.4901H17.661L18.161 15.8771" stroke="var(--stroke-0, #333333)" stroke-width="1.2" stroke-linecap="round" stroke-linejoin="round"/>
</g>
</svg>
