<svg width="49" height="34" viewBox="0 0 49 34" fill="none" xmlns="http://www.w3.org/2000/svg">
<g clip-path="url(#clip0_2951_4192)">
<path d="M31.6698 33.25C40.7107 33.25 48.0398 25.9209 48.0398 16.88C48.0398 7.83911 40.7107 0.51001 31.6698 0.51001C22.6289 0.51001 15.2998 7.83911 15.2998 16.88C15.2998 25.9209 22.6289 33.25 31.6698 33.25Z" fill="white" stroke="#231815" stroke-linecap="round" stroke-linejoin="round"/>
<path d="M30.7301 9.53003C30.7301 9.53003 30.2601 11.32 30.4901 12.25C30.7201 13.19 31.3501 12.91 31.3501 12.91" stroke="#070001" stroke-linecap="round" stroke-linejoin="round"/>
<path d="M35.1304 7.84C35.1304 7.84 33.8004 7.07 33.1904 7.68" stroke="#070001" stroke-linecap="round" stroke-linejoin="round"/>
<path d="M25.75 7.96997C25.75 7.96997 27.26 7.15997 28.01 7.74997" stroke="#070001" stroke-linecap="round" stroke-linejoin="round"/>
<path d="M34.19 10.59C34.24 11.11 34.5 11.54 34.78 11.54C35.06 11.54 35.24 11.13 35.19 10.61C35.14 10.09 34.88 9.66997 34.6 9.65997C34.32 9.65997 34.14 10.07 34.19 10.59Z" fill="#070001"/>
<path d="M26.7398 10.74C26.7898 11.26 27.0598 11.69 27.3298 11.69C27.6098 11.69 27.7898 11.28 27.7398 10.76C27.6898 10.24 27.4298 9.82 27.1498 9.81C26.8698 9.81 26.6898 10.22 26.7398 10.74Z" fill="#070001"/>
<path d="M28.5801 15.42C28.5801 15.42 31.9501 16.55 33.6701 14.55Z" fill="white"/>
<path d="M28.5801 15.42C28.5801 15.42 31.9501 16.55 33.6701 14.55" stroke="#231815" stroke-linecap="round" stroke-linejoin="round"/>
<path d="M24.3496 20.63C24.3496 20.63 31.4696 31.57 36.9696 21.32" stroke="#231815" stroke-linecap="round" stroke-linejoin="round"/>
<path d="M19.5596 7.59998C16.3396 7.00998 14.3496 9.94998 12.4896 9.94998C10.6296 9.94998 8.63959 6.99998 5.42959 7.58998C2.84959 8.05998 -0.370414 10.84 0.709586 15.46C1.70959 19.71 10.5196 27.88 12.4696 27.88C14.4196 27.88 23.2496 19.74 24.2596 15.49C25.3496 10.87 22.1396 8.07998 19.5596 7.59998Z" fill="#CC4843"/>
<path d="M19.5596 7.59998C16.3396 7.00998 14.3496 9.94998 12.4896 9.94998C10.6296 9.94998 8.63959 6.99998 5.42959 7.58998C2.84959 8.05998 -0.370414 10.84 0.709586 15.46C1.70959 19.71 10.5196 27.88 12.4696 27.88C14.4196 27.88 23.2496 19.74 24.2596 15.49C25.3496 10.87 22.1396 8.07998 19.5596 7.59998Z" stroke="#231815" stroke-linecap="round" stroke-linejoin="round"/>
<path d="M24.4801 20.82C23.7601 21.01 18.3301 17.99 21.4501 16.74C24.5701 15.49 25.4901 20.56 24.4801 20.82Z" fill="white" stroke="#231815" stroke-linecap="round" stroke-linejoin="round"/>
<path d="M4.71028 19.77C4.87028 20.65 4.39028 21.48 3.65028 21.61C2.90028 21.75 2.17028 21.14 2.01028 20.26C1.85028 19.38 2.33028 18.55 3.07028 18.42C3.82028 18.28 4.55028 18.89 4.71028 19.77Z" fill="white" stroke="#231815" stroke-linecap="round" stroke-linejoin="round"/>
</g>
<defs>
<clipPath id="clip0_2951_4192">
<rect width="48.55" height="33.75" fill="white"/>
</clipPath>
</defs>
</svg>
