<svg preserveAspectRatio="xMidYMid meet" width="100%" height="100%" overflow="visible" style="display: block;" viewBox="0 0 24.9867 19.0133" fill="none" xmlns="http://www.w3.org/2000/svg">
<g>
<path d="M24.88 8.26667L20.6 3.41333C20.5067 3.30667 20.3733 3.24 20.2267 3.24H16.44V0.506667C16.44 0.226667 16.2133 0 15.9333 0H0.506667C0.226667 0 0 0.226667 0 0.506667V15.08C0 15.36 0.226667 15.5867 0.506667 15.5867H2.61333C2.6 15.7067 2.57333 15.8267 2.57333 15.9467C2.57333 17.64 3.94667 19.0133 5.64 19.0133C7.33333 19.0133 8.70667 17.64 8.70667 15.9467C8.70667 15.8267 8.68 15.7067 8.66667 15.5867H15.92C15.92 15.5867 15.9333 15.5867 15.9467 15.5867C15.9467 15.5867 15.96 15.5867 15.9733 15.5867H16.32C16.3067 15.7067 16.28 15.8267 16.28 15.9467C16.28 17.64 17.6533 19.0133 19.3467 19.0133C21.04 19.0133 22.4133 17.64 22.4133 15.9467C22.4133 15.8267 22.3867 15.7067 22.3733 15.5867H24.48C24.76 15.5867 24.9867 15.36 24.9867 15.08V8.6C24.9867 8.48 24.9467 8.36 24.8667 8.26667H24.88ZM5.64 18C4.49333 18 3.57333 17.0667 3.57333 15.9333C3.57333 14.8 4.50667 13.8667 5.64 13.8667C6.77333 13.8667 7.70667 14.8 7.70667 15.9333C7.70667 17.0667 6.77333 18 5.64 18ZM8.57333 15.04C8.57333 15.04 8.57333 15.0533 8.57333 15.0667C8.57333 15.0667 8.57333 15.0533 8.57333 15.04ZM15.4267 14.5733H8.38667C7.88 13.56 6.85333 12.8533 5.64 12.8533C4.42667 12.8533 3.4 13.56 2.90667 14.5733H1V1H15.4267V14.5733ZM2.70667 15.0667C2.70667 15.0667 2.70667 15.0533 2.70667 15.04C2.70667 15.04 2.70667 15.0533 2.70667 15.0667ZM16.4267 15.04C16.4267 15.04 16.4267 15.0533 16.4267 15.0667C16.4267 15.0667 16.4267 15.0533 16.4267 15.04ZM19.36 18C18.2133 18 17.2933 17.0667 17.2933 15.9333C17.2933 14.8 18.2267 13.8667 19.36 13.8667C20.4933 13.8667 21.4267 14.8 21.4267 15.9333C21.4267 17.0667 20.4933 18 19.36 18ZM22.28 15.04C22.28 15.04 22.28 15.0533 22.28 15.0667C22.28 15.0667 22.28 15.0533 22.28 15.04ZM24 14.5733H22.0933C21.5867 13.56 20.56 12.8533 19.3467 12.8533C18.1333 12.8533 17.1067 13.56 16.6 14.5733H16.4667V4.24H18.1333V9.45333C18.1333 9.73333 18.36 9.96 18.64 9.96H24V14.5867V14.5733ZM24 8.94667H19.1467V4.24H19.9867L24 8.78667V8.94667Z" fill="#00387D"/>
</g>
</svg>
